# xmcd
#
# Track frame offsets:
#	150
#	19964
#	35078
#	52141
#	70313
#	89266
#	102181
#	118970
#	135097
#	150865
#	169341
#	186102
#
# Disc length: 2710 seconds
#
# Revision: 1
# Processed by: cddbd v1.5.2PL0 Copyright (c) Steve Scherf et al.
# Submitted via: audiograbber 1.83.01
#
DISCID=a00a940c
DTITLE=Various Artist - Tanzparty - Die Instrumentale
DYEAR=1900
DGENRE=Dance
TTITLE0=I´ll never fall in love again
TTITLE1=Something Stupid
TTITLE2=More
TTITLE3=Girls from Paramaribo
TTITLE4=Moon River
TTITLE5=So what´s new
TTITLE6=tea for wo
TTITLE7=the days of wine and roses
TTITLE8=St. Thomas
TTITLE9=This Masquarade
TTITLE10=Summer Samba
TTITLE11=Mood Indigo
EXTD=
EXTT0=
EXTT1=
EXTT2=
EXTT3=
EXTT4=
EXTT5=
EXTT6=
EXTT7=
EXTT8=
EXTT9=
EXTT10=
EXTT11=
PLAYORDER=
